<svg width="164" height="40" viewBox="0 0 164 40" fill="none" xmlns="http://www.w3.org/2000/svg">
<path d="M156.294 12C160.753 12 163.998 15.3392 163.998 19.9999C163.998 24.6605 160.753 27.9997 156.294 27.9997C151.834 27.9997 148.612 24.6605 148.612 19.9999C148.612 15.3392 151.857 12 156.294 12ZM156.294 14.9214C153.579 14.9214 151.834 17.1011 151.834 19.9999C151.834 22.8986 153.577 25.0783 156.294 25.0783C159.01 25.0783 160.775 22.8759 160.775 19.9999C160.775 17.1238 159.008 14.9214 156.294 14.9214Z" fill="#C50B0B"/>
<path d="M140.451 12C143.452 12 145.345 13.5507 146.454 15.381L143.887 16.8622C143.213 15.774 141.974 14.917 140.451 14.917C137.82 14.917 135.906 17.0708 135.906 19.9878C135.906 22.9048 137.82 25.0585 140.451 25.0585C141.778 25.0585 142.952 24.4797 143.583 23.8781V22.0493H139.668V19.1777H146.628V25.0827C145.149 26.842 143.083 27.9997 140.451 27.9997C136.21 27.9997 132.73 24.8515 132.73 19.9878C132.73 15.1241 136.21 12 140.451 12Z" fill="#C50B0B"/>
<path d="M116.849 27.9997V12H119.827V24.903H126.279V27.9997H116.849Z" fill="#146AB2"/>
<path d="M111.521 27.9997L110.567 25.1762H103.795L102.841 27.9997H99.4773L105.205 12H109.158L114.864 27.9997H111.521ZM107.18 14.9992L104.712 22.3528H109.628L107.181 14.9992H107.18Z" fill="#146AB2"/>
<path d="M86.575 27.9982V12H94.4086C97.2426 12 98.6931 13.9433 98.6931 16.078C98.6931 18.0934 97.533 19.436 96.1262 19.7481C97.711 20.0116 98.982 21.6663 98.982 23.6818C98.982 26.08 97.4863 27.9997 94.6523 27.9997H86.5736L86.575 27.9982ZM89.5516 18.4306L93.7705 18.3999C94.8664 18.3999 95.5077 17.5888 95.5077 16.5333C95.5077 15.4777 94.8664 14.6666 93.7705 14.6666H89.5516V18.4306ZM89.5516 24.7998H93.7705C94.9759 24.7998 95.7558 24.0844 95.7558 22.9331C95.7558 21.9262 95.0197 21.0665 93.7705 21.0665H89.5516V24.7998Z" fill="#146AB2"/>
<path d="M76.8814 12C81.3412 12 84.5862 15.3392 84.5862 19.9999C84.5862 24.6605 81.3412 27.9997 76.8814 27.9997C72.4217 27.9997 69.1997 24.6605 69.1997 19.9999C69.1997 15.3392 72.4447 12 76.8814 12ZM76.8814 14.9214C74.1667 14.9214 72.4217 17.1011 72.4217 19.9999C72.4217 22.8986 74.1652 25.0783 76.8814 25.0783C79.5976 25.0783 81.3627 22.8759 81.3627 19.9999C81.3627 17.1238 79.5962 14.9214 76.8814 14.9214Z" fill="#146AB2"/>
<path d="M58.778 27.9997V12H61.756V24.903H68.2084V27.9997H58.778Z" fill="#146AB2"/>
<path d="M50.1202 12C53.1216 12 55.0137 13.5507 56.1229 15.381L53.5565 16.8622C52.8823 15.774 51.6426 14.917 50.1202 14.917C47.4886 14.917 45.5747 17.0708 45.5747 19.9878C45.5747 22.9048 47.4886 25.0585 50.1202 25.0585C51.4469 25.0585 52.6213 24.4797 53.252 23.8781V22.0493H49.3372V19.1777H56.2969V25.0827C54.8179 26.842 52.7518 27.9997 50.1202 27.9997C45.8792 27.9997 42.3994 24.8515 42.3994 19.9878C42.3994 15.1241 45.8792 12 50.1202 12Z" fill="#146AB2"/>
<path d="M30.8168 18.7963L21.501 13.4956V6.50831L30.8168 11.5681V13.7365L34.3998 9.15865L17.918 0.00292969V15.664L34.3998 24.5788V17.8617V16.3869L30.8168 14.7003V18.7963Z" fill="#C50B0B"/>
<path d="M30.8161 14.7026L27.4719 13.2568L30.8161 16.8712" fill="#C50B0B"/>
<path d="M16.4818 0L0 9.15607V30.3596L16.4818 39.7566V23.3721L5.97165 17.1074V22.8902L7.16599 21.4413L12.8988 25.0587V33.7329L3.58299 28.432V10.8427L16.481 18.5531L16.4818 0ZM12.8988 5.54183V12.7703L7.16599 9.15607L12.8988 5.54183Z" fill="#146AB2"/>
<path d="M7.93152 9.63915L3.58411 10.8439L7.16714 9.15723L7.93152 9.63915Z" fill="#254577"/>
<path d="M34.3974 30.604V16.6299L17.9155 26.0263V40.0005L34.3974 30.604ZM30.8144 22.4123V28.9175L21.4985 34.2181V27.7128L30.8144 22.4123Z" fill="#900000"/>
<path d="M21.4995 6.50927V1.99609L22.6936 7.15986L21.4995 6.50927Z" fill="#900000"/>
</svg>
